<?xml version="1.0" encoding="UTF-8"?><svg fill="#fff" viewBox="0 0 128 128" viewbox="0 0 128 128" xmlns="http://www.w3.org/2000/svg"><filter id="a"><feTurbulence baseFrequency="0.05" numOctaves="2" result="turbulence"/><feDisplacementMap in="SourceGraphic" in2="turbulence" scale="2" xChannelSelector="R" yChannelSelector="G"/></filter><circle cx="6" cy="64" r="4" filter="url(#a)"/><circle cx="46" cy="16" r="4" filter="url(#a)"/><circle cx="30" cy="30" r="4" filter="url(#a)"/><circle cx="16" cy="46" r="4" filter="url(#a)"/><circle cx="24" cy="64" r="4" filter="url(#a)"/><circle cx="36" cy="49" r="4" filter="url(#a)"/><circle cx="49" cy="36" r="4" filter="url(#a)"/><circle cx="64" cy="6" r="4" filter="url(#a)"/><circle cx="82" cy="16" r="4" filter="url(#a)"/><circle cx="98" cy="30" r="4" filter="url(#a)"/><circle cx="112" cy="46" r="4" filter="url(#a)"/><circle cx="64" cy="24" r="4" filter="url(#a)"/><circle cx="92" cy="49" r="4" filter="url(#a)"/><circle cx="79" cy="36" r="4" filter="url(#a)"/><circle cx="122" cy="64" r="4" filter="url(#a)"/><circle cx="82" cy="112" r="4" filter="url(#a)"/><circle cx="98" cy="98" r="4" filter="url(#a)"/><circle cx="112" cy="82" r="4" filter="url(#a)"/><circle cx="104" cy="64" r="4" filter="url(#a)"/><circle cx="92" cy="79" r="4" filter="url(#a)"/><circle cx="79" cy="92" r="4" filter="url(#a)"/><circle cx="64" cy="122" r="4" filter="url(#a)"/><circle cx="16" cy="82" r="4" filter="url(#a)"/><circle cx="30" cy="98" r="4" filter="url(#a)"/><circle cx="46" cy="112" r="4" filter="url(#a)"/><circle cx="64" cy="104" r="4" filter="url(#a)"/><circle cx="36" cy="79" r="4" filter="url(#a)"/><circle cx="49" cy="92" r="4" filter="url(#a)"/></svg>